<svg width="21" height="20" viewBox="0 0 21 20" fill="none" xmlns="http://www.w3.org/2000/svg">
<path d="M20.0938 0.90625C20.6016 1.36328 20.6016 2.125 20.0938 2.58203L3.03125 19.6445C2.82812 19.8984 2.52344 20 2.21875 20C1.86328 20 1.55859 19.8984 1.30469 19.6445C0.796875 19.1875 0.796875 18.4258 1.30469 17.9688L18.3672 0.90625C18.8242 0.398438 19.5859 0.398438 20.0938 0.90625ZM4.25 6.1875C2.87891 6.1875 1.8125 5.12109 1.8125 3.75C1.8125 2.42969 2.87891 1.3125 4.25 1.3125C5.57031 1.3125 6.6875 2.42969 6.6875 3.75C6.6875 5.12109 5.57031 6.1875 4.25 6.1875ZM17.25 14.3125C18.5703 14.3125 19.6875 15.4297 19.6875 16.75C19.6875 18.1211 18.5703 19.1875 17.25 19.1875C15.8789 19.1875 14.8125 18.1211 14.8125 16.75C14.8125 15.4297 15.8789 14.3125 17.25 14.3125Z" fill="#0E6CDD"/>
</svg>
