<svg width="15" height="21" viewBox="0 0 15 21" fill="none" xmlns="http://www.w3.org/2000/svg">
<path d="M3.125 4.25C2.07031 4.25 1.25 3.35156 1.25 2.375C1.25 1.35938 2.07031 0.5 3.125 0.5C4.14062 0.5 5 1.39844 5 2.375C5 3.39062 4.14062 4.25 3.125 4.25ZM14.375 4.25C14.6875 4.25 15 4.5625 15 4.875V11.1641C15 11.4766 14.6875 11.75 14.375 11.75H5.74219C5.23438 11.75 4.80469 11.4375 4.60938 11.0078L3.75 8.89844V13.3516L5.23438 14.4062C5.625 14.7188 5.89844 15.1484 5.97656 15.6172L6.83594 19.2109C6.95312 19.7188 6.64062 20.2656 6.13281 20.3438C5.58594 20.5 5.11719 20.1484 5 19.6797L4.25781 16.3594C4.17969 16.0859 4.02344 15.8516 3.78906 15.6562L0.820312 13.3125C0.117188 12.7656 0 11.9453 0 11.6328V7.64844C0 6.47656 0.976562 5.5 2.1875 5.5H2.89062C3.78906 5.5 4.57031 6.04688 4.92188 6.86719L6.17188 9.875H7.5V4.83594C7.5 4.52344 7.77344 4.25 8.125 4.25H14.375ZM13.125 9.875V6.125H9.375V9.875H13.125ZM0 19.5625V14.2891C0 14.3281 1.40625 15.4219 1.875 15.8125V19.5625C1.875 20.1094 1.44531 20.4609 0.9375 20.4609C0.390625 20.4609 0 20.0703 0 19.5625Z" fill="#0E6CDD"/>
</svg>
