<svg width="20" height="24" viewBox="0 0 20 24" fill="none" xmlns="http://www.w3.org/2000/svg">
<path d="M0 2.09375C0 1.43359 0.507812 0.875 1.21875 0.875H18.2812C18.9414 0.875 19.5 1.43359 19.5 2.09375C19.5 2.80469 18.9414 3.3125 18.2812 3.3125H1.21875C0.507812 3.3125 0 2.80469 0 2.09375ZM0 8.59375C0 7.93359 0.507812 7.375 1.21875 7.375H18.2812C18.9414 7.375 19.5 7.93359 19.5 8.59375C19.5 9.30469 18.9414 9.8125 18.2812 9.8125H10.9688V22.4062C10.9688 23.1172 10.4102 23.625 9.75 23.625C9.03906 23.625 8.53125 23.1172 8.53125 22.4062V9.8125H1.21875C0.507812 9.8125 0 9.30469 0 8.59375Z" fill="#0E6CDD"/>
</svg>
