<svg width="86" height="24" viewBox="0 0 86 24" fill="none" xmlns="http://www.w3.org/2000/svg">
<path d="M86 0H0V24H86V0Z" fill="#0E6CDD" fill-opacity="0.2"/>
<path d="M11.576 7.02401L8.64003 11H7.77603V5.40001H8.76003V9.38401L11.696 5.40001H12.56V11H11.576V7.02401Z" fill="white"/>
<path d="M18.632 11H17.656V8.60801H15.096V11H14.112V5.40001H15.096V7.68801H17.656V5.40001H18.632V11Z" fill="white"/>
<path d="M21.3023 6.32001H19.4863V5.40001H24.1023V6.32001H22.2863V11H21.3023V6.32001Z" fill="white"/>
<path d="M28.2757 11H24.9557V5.40001H28.1957V6.32001H25.9397V7.71201H27.9557V8.63201H25.9397V10.08H28.2757V11Z" fill="white"/>
<path d="M30.5413 8.97601V11H29.5573V5.40001C29.7919 5.40001 30.0453 5.39734 30.3173 5.39201C30.5946 5.38668 30.8719 5.38401 31.1493 5.38401C31.5439 5.38401 31.8853 5.43468 32.1733 5.53601C32.4666 5.63201 32.6933 5.76801 32.8533 5.94401C33.0133 6.11468 33.1306 6.30401 33.2053 6.51201C33.2799 6.71468 33.3173 6.93868 33.3173 7.18401C33.3173 7.69068 33.1359 8.12001 32.7733 8.47201C32.4159 8.82401 31.9146 9.00001 31.2693 9.00001C30.9439 9.00001 30.7013 8.99201 30.5413 8.97601ZM31.2453 6.30401L30.5413 6.32001V8.04001C30.8239 8.06668 31.0559 8.08001 31.2373 8.08001C31.5519 8.08001 31.8026 8.00268 31.9893 7.84801C32.1813 7.69335 32.2773 7.46935 32.2773 7.17601C32.2773 6.59468 31.9333 6.30401 31.2453 6.30401Z" fill="white"/>
<path d="M34.2121 11H33.2201L35.5881 5.38401H36.4521L38.8201 11H37.7721L37.1881 9.56801H34.7961L34.2121 11ZM36.8121 8.64801L35.9961 6.65601L35.1721 8.64801H36.8121Z" fill="white"/>
<path d="M40.6428 11H39.6588V5.40001H40.6428V8.05601L42.8508 5.40001H44.0348L41.7308 8.00801L44.1788 11H42.9308L40.6428 8.11201V11Z" fill="white"/>
<path d="M46.107 6.32001H44.291V5.40001H48.907V6.32001H47.091V11H46.107V6.32001Z" fill="white"/>
<path d="M53.5604 7.02401L50.6244 11H49.7604V5.40001H50.7444V9.38401L53.6804 5.40001H54.5444V11H53.5604V7.02401Z" fill="white"/>
<path d="M56.0963 10.992V5.41601C56.6723 5.38935 57.211 5.37601 57.7123 5.37601C58.331 5.37601 58.7923 5.49868 59.0963 5.74401C59.4003 5.98935 59.5523 6.32801 59.5523 6.76001C59.5523 7.36268 59.2857 7.78668 58.7523 8.03201V8.04801C59.0563 8.12801 59.2963 8.28001 59.4723 8.50401C59.6483 8.72268 59.7363 9.00534 59.7363 9.35201C59.7363 9.89601 59.5497 10.312 59.1763 10.6C58.803 10.888 58.2963 11.032 57.6563 11.032C57.0163 11.032 56.4963 11.0187 56.0963 10.992ZM57.7763 8.59201H57.0803V10.072C57.331 10.0987 57.547 10.112 57.7283 10.112C58.411 10.112 58.7523 9.84268 58.7523 9.30401C58.7523 9.06935 58.667 8.89335 58.4963 8.77601C58.3257 8.65335 58.0857 8.59201 57.7763 8.59201ZM57.6963 6.29601C57.4617 6.29601 57.2563 6.30401 57.0803 6.32001V7.73601H57.7443C57.995 7.73601 58.195 7.67201 58.3443 7.54401C58.499 7.41601 58.5763 7.23201 58.5763 6.99201C58.5763 6.76801 58.499 6.59734 58.3443 6.48001C58.1897 6.35735 57.9737 6.29601 57.6963 6.29601Z" fill="white"/>
<path d="M65.5538 11H64.5778V8.60801H62.0178V11H61.0338V5.40001H62.0178V7.68801H64.5778V5.40001H65.5538V11Z" fill="white"/>
<path d="M66.6882 8.20001C66.6882 7.38401 66.9602 6.69868 67.5042 6.14401C68.0588 5.58934 68.7575 5.31201 69.6002 5.31201C70.4428 5.31201 71.1388 5.57868 71.6882 6.11201C72.2428 6.65068 72.5202 7.34668 72.5202 8.20001C72.5202 9.03735 72.2428 9.72801 71.6882 10.272C71.1335 10.816 70.4375 11.088 69.6002 11.088C68.7575 11.088 68.0615 10.8213 67.5122 10.288C66.9628 9.75468 66.6882 9.05868 66.6882 8.20001ZM67.7282 8.20001C67.7282 8.76535 67.9068 9.23468 68.2642 9.60801C68.6215 9.98135 69.0668 10.168 69.6002 10.168C70.1762 10.168 70.6322 9.98135 70.9682 9.60801C71.3095 9.23468 71.4802 8.76535 71.4802 8.20001C71.4802 7.62935 71.2988 7.15735 70.9362 6.78401C70.5735 6.41601 70.1282 6.23201 69.6002 6.23201C69.0615 6.23201 68.6135 6.41601 68.2562 6.78401C67.9042 7.15201 67.7282 7.62401 67.7282 8.20001Z" fill="white"/>
<path d="M76.9788 11H73.6588V5.40001H76.8988V6.32001H74.6428V7.71201H76.6588V8.63201H74.6428V10.08H76.9788V11Z" fill="white"/>
<path d="M8.04803 19H7.05603L9.42403 13.384H10.288L12.656 19H11.608L11.024 17.568H8.63203L8.04803 19ZM10.648 16.648L9.83203 14.656L9.00803 16.648H10.648Z" fill="white"/>
<path d="M14.4788 19H13.4948V13.4H16.6548V14.32H14.4788V19Z" fill="white"/>
<path d="M20.8695 19H17.5495V13.4H20.7895V14.32H18.5335V15.712H20.5495V16.632H18.5335V18.08H20.8695V19Z" fill="white"/>
<path d="M26.671 19H25.695V16.608H23.135V19H22.151V13.4H23.135V15.688H25.695V13.4H26.671V19Z" fill="white"/>
<path d="M29.3413 14.32H27.5253V13.4H32.1413V14.32H30.3253V19H29.3413V14.32Z" fill="white"/>
<path d="M36.625 17.72L37.001 18.456C36.825 18.6427 36.5716 18.7947 36.241 18.912C35.9156 19.0293 35.5716 19.088 35.209 19.088C34.3556 19.088 33.6596 18.824 33.121 18.296C32.5876 17.768 32.321 17.0693 32.321 16.2C32.321 15.368 32.5743 14.6773 33.081 14.128C33.5823 13.584 34.2836 13.312 35.185 13.312C35.8996 13.312 36.4676 13.5013 36.889 13.88L36.449 14.608C36.0703 14.3573 35.649 14.232 35.185 14.232C34.6516 14.232 34.2143 14.4107 33.873 14.768C33.5316 15.1253 33.361 15.6027 33.361 16.2C33.361 16.7867 33.5396 17.2613 33.897 17.624C34.2596 17.9867 34.7263 18.168 35.297 18.168C35.7876 18.168 36.2303 18.0187 36.625 17.72Z" fill="white"/>
<path d="M39.0992 14.32H37.2832V13.4H41.8992V14.32H40.0832V19H39.0992V14.32Z" fill="white"/>
<path d="M42.7526 18.992V13.416C43.3286 13.3893 43.8673 13.376 44.3686 13.376C44.9873 13.376 45.4486 13.4987 45.7526 13.744C46.0566 13.9893 46.2086 14.328 46.2086 14.76C46.2086 15.3627 45.9419 15.7867 45.4086 16.032V16.048C45.7126 16.128 45.9526 16.28 46.1286 16.504C46.3046 16.7227 46.3926 17.0053 46.3926 17.352C46.3926 17.896 46.2059 18.312 45.8326 18.6C45.4593 18.888 44.9526 19.032 44.3126 19.032C43.6726 19.032 43.1526 19.0187 42.7526 18.992ZM44.4326 16.592H43.7366V18.072C43.9873 18.0987 44.2033 18.112 44.3846 18.112C45.0673 18.112 45.4086 17.8427 45.4086 17.304C45.4086 17.0693 45.3233 16.8933 45.1526 16.776C44.9819 16.6533 44.7419 16.592 44.4326 16.592ZM44.3526 14.296C44.1179 14.296 43.9126 14.304 43.7366 14.32V15.736H44.4006C44.6513 15.736 44.8513 15.672 45.0006 15.544C45.1553 15.416 45.2326 15.232 45.2326 14.992C45.2326 14.768 45.1553 14.5973 45.0006 14.48C44.8459 14.3573 44.6299 14.296 44.3526 14.296Z" fill="white"/>
<path d="M47.2741 16.2C47.2741 15.384 47.5461 14.6987 48.0901 14.144C48.6448 13.5893 49.3434 13.312 50.1861 13.312C51.0288 13.312 51.7248 13.5787 52.2741 14.112C52.8288 14.6507 53.1061 15.3467 53.1061 16.2C53.1061 17.0373 52.8288 17.728 52.2741 18.272C51.7194 18.816 51.0234 19.088 50.1861 19.088C49.3434 19.088 48.6474 18.8213 48.0981 18.288C47.5488 17.7547 47.2741 17.0587 47.2741 16.2ZM48.3141 16.2C48.3141 16.7653 48.4928 17.2347 48.8501 17.608C49.2074 17.9813 49.6528 18.168 50.1861 18.168C50.7621 18.168 51.2181 17.9813 51.5541 17.608C51.8954 17.2347 52.0661 16.7653 52.0661 16.2C52.0661 15.6293 51.8848 15.1573 51.5221 14.784C51.1594 14.416 50.7141 14.232 50.1861 14.232C49.6474 14.232 49.1994 14.416 48.8421 14.784C48.4901 15.152 48.3141 15.624 48.3141 16.2Z" fill="white"/>
</svg>
